# xmcd CD database file
#
# Track frame offsets:
#	150
#	7362
#	18842
#	33555
#	47570
#	62075
#	80500
#	93035
#	115472
#	133690
#	151122
#	158985
#	169917
#	178625
#	195852
#	204607
#	218910
#
# Disc length: 3310 seconds
#
# Revision: 3
# Processed by: cddbd v1.5.1PL0 Copyright (c) Steve Scherf et al.
# Submitted via: CDex 1.51
#
DISCID=e00cec11
DTITLE=Various Artist - Shake The Record Label: The Beat Goes On...
DYEAR=1900
DGENRE=Blues
TTITLE0=Loney, Roy And The Longshots - The Long Shots Theme
TTITLE1=Prisonshake - Precious
TTITLE2=The Vacant Lot - Blue, My Mind
TTITLE3=Smudge - Missing You
TTITLE4=Drop City - Super Nova
TTITLE5=Nectarine #9 - Un-Loaded For You
TTITLE6=Ed Kuepper - If I Had A Ticket
TTITLE7=Llamasaurus - I Will
TTITLE8=Prisonshake - 2 Sisters
TTITLE9=The Vacant Lot - Dee Dee Said
TTITLE10=Smudge - The Wrong Pony
TTITLE11=Loney, Roy And The Longshots - Get Off The Phone
TTITLE12=The Vacant Lot - You Where On My Mind
TTITLE13=Nectarine #9 - Inside The Heart
TTITLE14=Drop City - Interlude With A Madman Bum
TTITLE15=Smudge - Ingrown
TTITLE16=Drop City - Losing Touch With My Mind
EXTD=
EXTT0=
EXTT1=
EXTT2=
EXTT3=
EXTT4=
EXTT5=
EXTT6=
EXTT7=
EXTT8=
EXTT9=
EXTT10=
EXTT11=
EXTT12=
EXTT13=
EXTT14=
EXTT15=
EXTT16=
PLAYORDER=
